<svg version="1.2" xmlns="http://www.w3.org/2000/svg" viewBox="0 0 200 102" width="196" height="100"><style>.a{fill:#fff}.b{fill:none;stroke:#fff;stroke-width:.4}.c{fill:none;stroke:#fff;stroke-width:.7}.d{fill:none;stroke:#fff;stroke-width:.6}</style><path class="a" d="m107.6 33.6c0-4.5-5.6-4.7-12.1-5.7v-1h20.9l15 18.1h0.2l14.3-18.1h8.9v40.4h-6.4v-37.4h-0.2l-15.1 20.6-2.9 3.1-18.7-23.7h-0.1v37.4h-3.8z"/><path class="a" d="m64.7 43.3c-0.5-1.4-0.8-2.9-0.8-4.8 0-8.3 6.3-12.9 16.2-12.9 4.8 0 8.8 0.8 10.9 1.2v5.4c-2.3-1.1-7.1-3.1-12.3-3.1-5.4 0-9 2.9-9 7.6 0 4.1 2.7 6.6 6.3 8.8-3.5-0.9-7.3-1.6-11.3-2.2z"/><path class="a" d="m94.4 61.8c0 5.9-9.5 11-24.4 14.2 10.8-3 18.2-7.9 18.2-12.7 0-9.3-25.3-16.2-55.7-16.2-10.6 0-20.5 0.9-29 2.5-1.1-0.6-2.3 0.7-3.5 0 9.8-2 21.8-5.3 34.9-5.3 32.9 0 59.5 7.9 59.5 17.5z"/><path class="a" d="m197.6 59l-0.4 8.1h-28.1v-33.8c0-3.4-4.9-4.6-11.2-5.3v-1h38.1l0.4 7.3h-2.2c-0.8-3.1-0.7-5-6.7-5h-7.6c-4.2 0-4.4 0.7-4.4 3.9v12.5h12.7v3h-12.7v12.6c0 3.4 0.6 3.4 5.9 3.4h7.8c4.8 0 8.4-5.8 8.4-5.7z"/><path class="a" d="m32 32.5c0.6-1 1.1-2.2 1.1-3 0-1.5-7.5-2-11.1-2.7v-0.9h18.1l20.2 43.6c-2.3-0.4-2.8-2.5-7.6-2.4l-16.1-35.3-17.8 35.3h-4.6z"/><path class="a" d="m12.9 86.2c0.1 0.2 0.2 0.6 0.2 0.8v0.1l-0.2 0.2c-0.4 0.4-1.2 1-2.5 1-0.5 0-1.2 0-1.6-0.3l-0.3-0.1 0.5-0.6 0.2 0.1c0.5 0.2 0.8 0.3 1.4 0.3 0.5 0 1.1-0.3 1.4-0.5l0.1-0.1-0.1-0.1c0-0.2-0.1-0.4-0.3-0.6-0.1-0.2-0.2-0.4-0.4-0.6l-0.4-0.4q-0.4-0.4-0.6-0.7c-0.2-0.3-0.2-0.4-0.3-0.6l-0.1-0.2 0.2-0.1c0.4-0.4 1-0.8 1.8-1 0.5-0.1 1.2-0.2 2-0.2h0.3l-0.3 0.7h-0.4c-0.3 0-0.6 0-1.1 0.1-0.4 0.1-0.9 0.3-1.2 0.5l-0.2 0.1 0.1 0.1c0.1 0.2 0.2 0.3 0.3 0.5 0.1 0.2 0.3 0.4 0.6 0.6l0.3 0.4c0.2 0.2 0.4 0.4 0.6 0.6z"/><path class="b" d="m12.9 86.2c0.1 0.2 0.2 0.6 0.2 0.8v0.1l-0.2 0.2c-0.4 0.4-1.2 1-2.5 1-0.5 0-1.2 0-1.6-0.3l-0.3-0.1 0.5-0.6 0.2 0.1c0.5 0.2 0.8 0.3 1.4 0.3 0.5 0 1.1-0.3 1.4-0.5l0.1-0.1-0.1-0.1c0-0.2-0.1-0.4-0.3-0.6-0.1-0.2-0.2-0.4-0.4-0.6l-0.4-0.4q-0.4-0.4-0.6-0.7c-0.2-0.3-0.2-0.4-0.3-0.6l-0.1-0.2 0.2-0.1c0.4-0.4 1-0.8 1.8-1 0.5-0.1 1.2-0.2 2-0.2h0.3l-0.3 0.7h-0.4c-0.3 0-0.6 0-1.1 0.1-0.4 0.1-0.9 0.3-1.2 0.5l-0.2 0.1 0.1 0.1c0.1 0.2 0.2 0.3 0.3 0.5 0.1 0.2 0.3 0.4 0.6 0.6l0.3 0.4c0.2 0.2 0.4 0.4 0.6 0.6z"/><path class="a" d="m19.6 87.6h2.6l-0.2 0.7h-3.6l1.9-5.2v-0.5h3.6l-0.2 0.7h-2.5l-0.7 1.8h2.5l-0.2 0.6h-2.5z"/><path class="b" d="m19.6 87.6h2.6l-0.2 0.7h-3.6l1.9-5.2v-0.5h3.6l-0.2 0.7h-2.5l-0.7 1.8h2.5l-0.2 0.6h-2.5z"/><path class="a" d="m29.9 88.3h-1.2l1.8-5h-1.9l0.3-0.7h4.7l-0.3 0.7h-1.8l-1.6 4.5z"/><path class="b" d="m29.9 88.3h-1.2l1.8-5h-1.9l0.3-0.7h4.7l-0.3 0.7h-1.8l-1.6 4.5z"/><path class="a" d="m38.8 88.3h-1.1l1.8-5h-1.9l0.3-0.7h4.6l-0.2 0.7h-1.9l-1.6 4.5z"/><path class="b" d="m38.8 88.3h-1.1l1.8-5h-1.9l0.3-0.7h4.6l-0.2 0.7h-1.9l-1.6 4.5z"/><path class="a" d="m48.9 82.6l-1.9 5.2v0.5h-1.1l1.8-5.2v-0.5z"/><path class="b" d="m48.9 82.6l-1.9 5.2v0.5h-1.1l1.8-5.2v-0.5z"/><path class="a" d="m57.9 88.3l-0.2-0.2c-0.3-0.3-0.7-0.8-1-1.5-0.3-0.8-0.5-1.8-0.5-2.6v-0.5l-1.6 4.3v0.5h-1.2l2.1-5.6h1.5v0.3c0 0.8 0.1 1.7 0.3 2.6 0.2 0.8 0.6 1.3 0.8 1.6l0.1 0.1 1.5-4.2v-0.5h1.1l-2.1 5.6h-0.8z"/><path class="b" d="m57.9 88.3l-0.2-0.2c-0.3-0.3-0.7-0.8-1-1.5-0.3-0.8-0.5-1.8-0.5-2.6v-0.5l-1.6 4.3v0.5h-1.2l2.1-5.6h1.5v0.3c0 0.8 0.1 1.7 0.3 2.6 0.2 0.8 0.6 1.3 0.8 1.6l0.1 0.1 1.5-4.2v-0.5h1.1l-2.1 5.6h-0.8z"/><path class="a" d="m70.6 82.6l0.8 0.1-0.2 0.7-0.7-0.1c-2-0.1-3.2 0.6-3.6 1.9-0.3 1 0.2 1.9 0.6 2.3l0.3 0.2h0.1c0.4-0.1 0.9-0.3 1.4-0.6 0.5-0.2 0.8-0.7 0.9-0.9l0.1-0.2h-1.6l0.2-0.6h2.5l-0.2 0.6q-0.4 1.1-1.3 1.6c-0.8 0.5-1.9 0.8-2.4 0.8l-0.3 0.1-0.3-0.2c-0.9-0.8-1.4-1.9-1.2-3 0.5-1.8 2.5-2.8 4.9-2.7z"/><path class="b" d="m70.6 82.6l0.8 0.1-0.2 0.7-0.7-0.1c-2-0.1-3.2 0.6-3.6 1.9-0.3 1 0.2 1.9 0.6 2.3l0.3 0.2h0.1c0.4-0.1 0.9-0.3 1.4-0.6 0.5-0.2 0.8-0.7 0.9-0.9l0.1-0.2h-1.6l0.2-0.6h2.5l-0.2 0.6q-0.4 1.1-1.3 1.6c-0.8 0.5-1.9 0.8-2.4 0.8l-0.3 0.1-0.3-0.2c-0.9-0.8-1.4-1.9-1.2-3 0.5-1.8 2.5-2.8 4.9-2.7z"/><path class="a" d="m84.5 88.3h-1.1l1.8-5h-1.9l0.3-0.7h4.7l-0.3 0.7h-1.8l-1.7 4.5z"/><path class="b" d="m84.5 88.3h-1.1l1.8-5h-1.9l0.3-0.7h4.7l-0.3 0.7h-1.8l-1.7 4.5z"/><path class="a" d="m93.5 85.7l-0.8 2.1v0.5h-1.2l2-5.2v-0.5h1.1l-0.9 2.5h2.9l0.7-2v-0.5h1.1l-1.9 5.2v0.5h-1.1l1-2.6z"/><path class="b" d="m93.5 85.7l-0.8 2.1v0.5h-1.2l2-5.2v-0.5h1.1l-0.9 2.5h2.9l0.7-2v-0.5h1.1l-1.9 5.2v0.5h-1.1l1-2.6z"/><path class="a" d="m104.2 87.6h2.5l-0.2 0.7h-3.5l1.9-5.2v-0.5h3.5l-0.2 0.7h-2.4l-0.7 1.8h2.5l-0.3 0.6h-2.4z"/><path class="b" d="m104.2 87.6h2.5l-0.2 0.7h-3.5l1.9-5.2v-0.5h3.5l-0.2 0.7h-2.4l-0.7 1.8h2.5l-0.3 0.6h-2.4z"/><path class="a" d="m121.1 86.2c0.1 0.2 0.2 0.6 0.2 0.8v0.1l-0.2 0.2c-0.4 0.4-1.2 1-2.5 1-0.5 0-1.1 0-1.6-0.3l-0.3-0.1 0.5-0.6 0.2 0.1c0.5 0.2 0.8 0.3 1.4 0.3 0.5 0 1.1-0.3 1.4-0.5l0.1-0.1-0.1-0.1c0-0.2-0.1-0.4-0.3-0.6-0.1-0.2-0.2-0.4-0.4-0.6l-0.4-0.4q-0.4-0.4-0.6-0.7c-0.2-0.3-0.2-0.4-0.3-0.6l-0.1-0.2 0.2-0.1c0.4-0.4 1-0.8 1.8-1 0.5-0.1 1.2-0.2 2-0.2h0.3l-0.3 0.7h-0.4c-0.3 0-0.6 0-1.1 0.1-0.4 0.1-0.9 0.3-1.2 0.5l-0.1 0.1v0.1c0.1 0.2 0.2 0.3 0.3 0.5 0.1 0.2 0.3 0.4 0.6 0.6l0.3 0.4c0.2 0.2 0.4 0.4 0.6 0.6z"/><path class="b" d="m121.1 86.2c0.1 0.2 0.2 0.6 0.2 0.8v0.1l-0.2 0.2c-0.4 0.4-1.2 1-2.5 1-0.5 0-1.1 0-1.6-0.3l-0.3-0.1 0.5-0.6 0.2 0.1c0.5 0.2 0.8 0.3 1.4 0.3 0.5 0 1.1-0.3 1.4-0.5l0.1-0.1-0.1-0.1c0-0.2-0.1-0.4-0.3-0.6-0.1-0.2-0.2-0.4-0.4-0.6l-0.4-0.4q-0.4-0.4-0.6-0.7c-0.2-0.3-0.2-0.4-0.3-0.6l-0.1-0.2 0.2-0.1c0.4-0.4 1-0.8 1.8-1 0.5-0.1 1.2-0.2 2-0.2h0.3l-0.3 0.7h-0.4c-0.3 0-0.6 0-1.1 0.1-0.4 0.1-0.9 0.3-1.2 0.5l-0.1 0.1v0.1c0.1 0.2 0.2 0.3 0.3 0.5 0.1 0.2 0.3 0.4 0.6 0.6l0.3 0.4c0.2 0.2 0.4 0.4 0.6 0.6z"/><path class="a" d="m128.6 88.3h-1.1l1.8-5h-1.9l0.2-0.7h4.7l-0.3 0.7h-1.8l-1.6 4.5z"/><path class="b" d="m128.6 88.3h-1.1l1.8-5h-1.9l0.2-0.7h4.7l-0.3 0.7h-1.8l-1.6 4.5z"/><path fill-rule="evenodd" class="a" d="m138.8 86.8h-2.5l-1.2 1.5-0.9-0.2 4.7-5.5h1.3l-0.1 0.5c-0.2 0.8-0.4 1.9-0.4 3.2 0.1 0.8 0.3 1.4 0.4 1.7l0.1 0.2-0.9 0.2-0.1-0.2c-0.1-0.1-0.1-0.3-0.1-0.5-0.1-0.2-0.1-0.5-0.1-0.7zm0.3-3.4l-2.3 2.8h1.9v-0.1c0-0.3 0-0.4 0.1-1 0.1-0.4 0.1-1 0.2-1.3z"/><path class="b" d="m138.8 86.8h-2.5l-1.2 1.5-0.9-0.2 4.7-5.5h1.3l-0.1 0.5c-0.2 0.8-0.4 1.9-0.4 3.2 0.1 0.8 0.3 1.4 0.4 1.7l0.1 0.2-0.9 0.2-0.1-0.2c-0.1-0.1-0.1-0.3-0.1-0.5-0.1-0.2-0.1-0.5-0.1-0.7zm0.2-3c-0.1 0.3-0.1 0.9-0.2 1.3-0.1 0.6-0.1 0.7-0.1 1v0.1h-1.9l2.3-2.8z"/><path class="a" d="m149.8 88.3l-0.2-0.2c-0.3-0.3-0.7-0.8-1-1.5-0.3-0.8-0.5-1.8-0.5-2.6v-0.5l-1.6 4.3v0.5h-1.1l2.1-5.6h1.4v0.3c0 0.8 0 1.7 0.3 2.6 0.2 0.8 0.6 1.3 0.8 1.6v0.1l1.6-4.2v-0.5h1.1l-2.1 5.6h-0.8z"/><path class="b" d="m149.8 88.3l-0.2-0.2c-0.3-0.3-0.7-0.8-1-1.5-0.3-0.8-0.5-1.8-0.5-2.6v-0.5l-1.6 4.3v0.5h-1.1l2.1-5.6h1.4v0.3c0 0.8 0 1.7 0.3 2.6 0.2 0.8 0.6 1.3 0.8 1.6v0.1l1.6-4.2v-0.5h1.1l-2.1 5.6h-0.8z"/><path fill-rule="evenodd" class="a" d="m159.3 88.3h-2l1.9-5.2v-0.5h4.1l0.3 0.5c0.5 0.9 0.5 2.1 0.1 2.9-0.9 1.7-2.9 2.3-4.4 2.3zm0.8-5l-1.6 4.4h0.6c1.1 0 2.5-0.4 3.4-1.6 0.7-0.9 0.5-2.1 0.2-2.6l-0.2-0.2z"/><path class="b" d="m159.3 88.3h-2l1.9-5.2v-0.5h4.1l0.3 0.5c0.5 0.9 0.5 2.1 0.1 2.9-0.9 1.7-2.9 2.3-4.4 2.3zm3.2-5l0.2 0.2c0.3 0.5 0.5 1.7-0.2 2.6-0.9 1.2-2.3 1.6-3.4 1.6h-0.6l1.6-4.4z"/><path fill-rule="evenodd" class="a" d="m172.6 86.8h-2.6l-1.2 1.5-0.9-0.2 4.7-5.5h1.3l-0.1 0.5c-0.2 0.8-0.4 1.9-0.3 3.2 0 0.8 0.2 1.4 0.3 1.7l0.1 0.2-0.9 0.2-0.1-0.2c-0.1-0.1-0.1-0.3-0.1-0.5-0.1-0.2-0.1-0.5-0.2-0.7zm0.3-3.4l-2.3 2.8h2v-0.1c0-0.3 0-0.4 0-1 0.1-0.4 0.2-1 0.2-1.3z"/><path class="b" d="m172.6 86.8h-2.6l-1.2 1.5-0.9-0.2 4.7-5.5h1.3l-0.1 0.5c-0.2 0.8-0.4 1.9-0.3 3.2 0 0.8 0.2 1.4 0.3 1.7l0.1 0.2-0.9 0.2-0.1-0.2c-0.1-0.1-0.1-0.3-0.1-0.5-0.1-0.2-0.1-0.5-0.2-0.7zm0.2-3c0 0.3-0.1 0.9-0.2 1.3 0 0.6 0 0.7 0 1v0.1h-2l2.3-2.8z"/><path fill-rule="evenodd" class="a" d="m182 86.3l-0.1-0.2h-1l-0.6 1.7v0.5h-1.1l1.8-5.2v-0.5h3.5l0.1 0.3c0.3 0.6 0.5 1.2 0.1 1.8-0.4 0.6-1.2 1-1.7 1.1l-0.2 0.1 0.2 0.4c0 0.1 0.3 0.6 0.5 0.8 0.2 0.3 0.6 0.6 1.4 0.6h0.2l-0.3 0.6h-0.4c-0.7 0-1.4-0.3-1.8-0.9-0.3-0.3-0.5-0.7-0.6-1.1zm-0.1-3l-0.8 2.1h0.3c1 0 1.6-0.2 2.1-0.5 0.5-0.5 0.5-1 0.4-1.4l-0.1-0.2z"/><path class="b" d="m182 86.3l-0.1-0.2h-1l-0.6 1.7v0.5h-1.1l1.8-5.2v-0.5h3.5l0.1 0.3c0.3 0.6 0.5 1.2 0.1 1.8-0.4 0.6-1.2 1-1.7 1.1l-0.2 0.1 0.2 0.4c0 0.1 0.3 0.6 0.5 0.8 0.2 0.3 0.6 0.6 1.4 0.6h0.2l-0.3 0.6h-0.4c-0.7 0-1.4-0.3-1.8-0.9-0.3-0.3-0.5-0.7-0.6-1.1zm1.8-3l0.1 0.2c0.1 0.4 0.1 0.9-0.4 1.4-0.5 0.3-1.1 0.5-2.1 0.5h-0.3l0.8-2.1z"/><path fill-rule="evenodd" class="a" d="m192.1 88.3h-2l1.9-5.2v-0.5h4.1l0.3 0.5c0.5 0.9 0.5 2.1 0.1 2.9-0.9 1.7-2.9 2.3-4.4 2.3zm0.8-5l-1.6 4.4h0.6c1.2 0 2.5-0.4 3.4-1.6 0.7-0.9 0.5-2.1 0.2-2.6l-0.2-0.2z"/><path class="b" d="m192.1 88.3h-2l1.9-5.2v-0.5h4.1l0.3 0.5c0.5 0.9 0.5 2.1 0.1 2.9-0.9 1.7-2.9 2.3-4.4 2.3zm3.2-5l0.2 0.2c0.3 0.5 0.5 1.7-0.2 2.6-0.9 1.2-2.2 1.6-3.4 1.6h-0.6l1.6-4.4z"/><path fill-rule="evenodd" class="a" d="m108.5 5.3c1.4 2.1-0.6 5.5-5 7.5-4.3 2-9.4 1.8-10.8-0.4-1.3-2.1 1-5.5 5.4-7.5 4.4-2 9.1-1.7 10.4 0.4zm0 0.3c-1.5-2.3-6.1-2.3-10.2-0.4-4 1.8-6.6 5.1-5.4 7.1 1.3 2 6.3 2.3 10.4 0.5 4-1.8 6.4-5.2 5.2-7.2z"/><path class="c" d="m108.5 5.3c1.4 2.1-0.6 5.5-5 7.5-4.3 2-9.4 1.8-10.8-0.4-1.3-2.1 1-5.5 5.4-7.5 4.4-2 9.1-1.7 10.4 0.4zm-5.2 7.5c-4.1 1.8-9.1 1.5-10.4-0.5-1.2-2 1.4-5.3 5.4-7.1 4.1-1.9 8.7-1.9 10.2 0.4 1.2 2-1.2 5.4-5.2 7.2z"/><path class="a" d="m137 17.9h0.1c-4.4-10.8-18.1-17.3-33.7-12.1-14 4.7-23.1 18-18.7 28.2l-0.3 0.3c-3.6-10.9 3.9-23.9 18.4-28.8 15.1-5.1 30.3 0.7 34.2 12.4z"/><path class="d" d="m137 17.9h0.1c-4.4-10.8-18.1-17.3-33.7-12.1-14 4.7-23.1 18-18.7 28.2l-0.3 0.3c-3.6-10.9 3.9-23.9 18.4-28.8 15.1-5.1 30.3 0.7 34.2 12.4z"/><path fill-rule="evenodd" class="a" d="m84.2 18.2c2-5.8 6.5-10.9 13.2-14 13.3-5.9 30.6-1.6 37.6 9.6 7.1 11.3 3 25.3-11.7 32-14.1 6.4-30.7 1.3-37.8-10.1-2.8-4.4-2.8-9.3-2.1-14.1 0.2-1.2 0.5-2.3 0.8-3.4zm13-14.4c-13.8 6.2-19 20.6-11.7 32.3 7.4 11.6 24.5 16.1 38.3 9.9 13.7-6.2 18.9-20.6 11.6-32.3-7.3-11.6-24.4-16-38.2-9.9z"/><path class="d" d="m84.2 18.2c2-5.8 6.5-10.9 13.2-14 13.3-5.9 30.6-1.6 37.6 9.6 7.1 11.3 3 25.3-11.7 32-14.1 6.4-30.7 1.3-37.8-10.1-2.8-4.4-2.8-9.3-2.1-14.1 0.2-1.2 0.5-2.3 0.8-3.4zm51.2-4.5c7.3 11.7 2.1 26.1-11.6 32.3-13.8 6.2-30.9 1.7-38.3-9.9-7.3-11.7-2.1-26.1 11.7-32.3 13.8-6.1 30.9-1.7 38.2 9.9z"/><path class="a" d="m126.8 43.9q-0.3 0.3-0.5 0.6c0 0 0.5-0.9 0.6-1.1 1.3-3.8-3-15.7-12.1-25.7-7.6-8.4-18.1-13.5-21.3-12l0.7-0.4c3.3-1.4 12.8 3 20.7 11.7 9.3 10.2 13.9 22.6 11.9 26.9z"/><path class="d" d="m126.8 43.9q-0.3 0.3-0.5 0.6c0 0 0.5-0.9 0.6-1.1 1.3-3.8-3-15.7-12.1-25.7-7.6-8.4-18.1-13.5-21.3-12l0.7-0.4c3.3-1.4 12.8 3 20.7 11.7 9.3 10.2 13.9 22.6 11.9 26.9z"/><path class="a" d="m118.2 48.1c0.3 0 0.4-0.2 0.2-0.2-10.1 0.7-20.1-9.7-22.2-22.6-2-12.2 4-22.5 12.9-24.1 0.4-0.1 0.8-0.1 1.3-0.2l-0.1 0.4c-0.4 0.1-0.9 0.1-1.3 0.2-8.6 1.4-13.9 12-12.3 23.9 2.4 13.3 12.4 22.8 21.9 22.5z"/><path class="d" d="m118.2 48.1c0.3 0 0.4-0.2 0.2-0.2-10.1 0.7-20.1-9.7-22.2-22.6-2-12.2 4-22.5 12.9-24.1 0.4-0.1 0.8-0.1 1.3-0.2l-0.1 0.4c-0.4 0.1-0.9 0.1-1.3 0.2-8.6 1.4-13.9 12-12.3 23.9 2.4 13.3 12.4 22.8 21.9 22.5z"/><path class="a" d="m126.9 44.2c9.9-7.8 9.5-21.2-2.4-30.7-10.9-8.4-28.1-8.6-37.5-1.4l-0.4-0.1c9.7-7.6 26.7-7.7 38.1 1 11.9 9 12.6 23.1 2.2 31.2z"/><path class="d" d="m126.9 44.2c9.9-7.8 9.5-21.2-2.4-30.7-10.9-8.4-28.1-8.6-37.5-1.4l-0.4-0.1c9.7-7.6 26.7-7.7 38.1 1 11.9 9 12.6 23.1 2.2 31.2z"/><path class="a" d="m136.3 15.9c0 0.2 0 0.3 0 0.5 0 0.4 1.1 3.6 0.3 6.2-1.4 5.5-6.2 10.4-13.2 14.4-9.4 5.4-20.7 7.6-29 4.9-2.8-0.7-5.2-2.3-7-3.9-0.4-0.5-0.7-0.9-1.1-1.3 0.5 0.8 1.1 1.6 1.8 2.3 7 6.3 22.9 5.6 35.6-1.5 11-6.2 15.9-15.1 12.6-21.6z"/><path class="d" d="m136.3 15.9c0 0.2 0 0.3 0 0.5 0 0.4 1.1 3.6 0.3 6.2-1.4 5.5-6.2 10.4-13.2 14.4-9.4 5.4-20.7 7.6-29 4.9-2.8-0.7-5.2-2.3-7-3.9-0.4-0.5-0.7-0.9-1.1-1.3 0.5 0.8 1.1 1.6 1.8 2.3 7 6.3 22.9 5.6 35.6-1.5 11-6.2 15.9-15.1 12.6-21.6z"/><path class="a" d="m82.8 22.9c3.4 5.6 16 5.7 26.9 0.6 10.9-5 16.5-14.1 13.1-19.7l0.7 0.1c3.6 5.9-2.2 14.7-13.8 20.1-11.4 5.4-23.6 5-27.3-0.7-0.1-0.1-0.1-0.2-0.1-0.2z"/><path class="d" d="m82.8 22.9c3.4 5.6 16 5.7 26.9 0.6 10.9-5 16.5-14.1 13.1-19.7l0.7 0.1c3.6 5.9-2.2 14.7-13.8 20.1-11.4 5.4-23.6 5-27.3-0.7-0.1-0.1-0.1-0.2-0.1-0.2z"/><path class="a" d="m3.5 97.4h196.5l-96.8 3.9z"/></svg>