<svg version="1.2" xmlns="http://www.w3.org/2000/svg" viewBox="0 0 296 60" width="296" height="60"><style>.a{fill:#8a979b}.b{fill:#416567}.c{fill:#0798b6}</style><path class="a" d="m36 32.3v26.8h-9.7v-25.3q0-7.4-8-7.4-3.4 0-8.2 1.8 0.2 1.2 0.2 1.7v29.2h-9.7v-31.5q0-1.8-0.6-5.6 11.3-4 18.4-4 17.6-0.1 17.6 14.3z"/><path class="a" d="m260.5 59.1h-9.7v-40.3h9.7z"/><path class="a" d="m131.6 59.1h-9.7v-59.1h9.7z"/><path class="a" d="m78.8 55.9q-11.4 4.1-18.4 4.1-17.6 0-17.6-14.4v-26.8h9.7v25.3q0 7.4 8 7.4 3.4 0 8.2-1.8-0.2-1.2-0.2-1.6v-29.3h9.7v31.5q0 1.8 0.6 5.6z"/><path fill-rule="evenodd" class="a" d="m173.8 42.5h-26.1q0.9 9.1 10.8 9.1 5.6 0 10.3-2.1l3.1 7.5q-7.1 3-14 3-9.3 0-15-5.8-5.7-5.7-5.7-15.2 0-9.1 4.8-14.9 5.1-6.2 14-6.2 8.6 0 13.6 5.4 4.8 5.3 4.8 13.9 0 1.2-0.6 5.3zm-9.5-7.6q-0.1-3.9-2.1-6.4-2.2-2.6-6.1-2.6-3.7 0-6 2.6-2.3 2.6-2.4 6.4z"/><path fill-rule="evenodd" class="a" d="m212.6 56.8q-10.4 3.2-17.3 3.2-7.1 0-12-2.6-6.1-3.3-6.1-9.7 0-7 6.5-10.2 2.6-1.3 12.1-3.4 6.5-1.4 6.5-4.1 0-3.7-6.8-3.7-5.6 0-11.3 2.4l-3.3-7.3q7.6-3.5 16-3.5 6.8 0.1 10.8 3.1 4.3 3.4 4.3 10.1v20.7q0 1.5 0.6 5zm-10.2-6q-0.1-1.1-0.1-1.5v-9.9q-1.2 1.2-5.2 2.1-4.9 1.1-6.2 1.6-3 1.4-3 3.9 0 4.9 7.5 4.9 3.5 0 7-1.1z"/><path class="a" d="m245.7 18.8l-2.9 8.3q-2.6-0.8-5.4-0.8-3.8 0-7.2 1.1 0 0.5 0 0.8v30.9h-9.7v-30.7q0-1.8-0.7-6 10.7-4.4 18.5-4.5 4 0.1 7.4 0.9z"/><path class="a" d="m294.7 47.9q0 6.1-5.3 9.4-4.4 2.7-10.8 2.7-6.3 0-13.4-2.7l2.9-7.6q5.6 2.5 9.7 2.5 6.1 0 6.1-4.5 0-2.8-4.6-5-7.5-3.5-8.4-4.1-4.6-3.4-4.6-9.1 0-5.7 5.1-8.9 4.2-2.6 9.9-2.7 6.5 0 11.6 2.5l-2.7 7.4q-5-1.8-8.9-1.8-5.1 0-5.1 3.6 0 2.6 4.8 4.5 7.3 2.9 8.9 4 4.8 3.5 4.8 9.8z"/><path class="b" d="m85.7 27.1c4-5.1 9.7-8.4 16.5-8.4 6.4 0 12.1 3 15.9 7.6l-8.2 6.4c-3.9-5.1-9.7-7.7-14.8-7.7-3.8 0-6.9 0.8-9.4 2.1z"/><path class="a" d="m102.2 49.4c3.4 0 6.4-1.6 8.3-4l7.8 6c-1.1 1.4-2.6 2.8-4 3.9-0.9 0.2-1.3 0.1-2.2 0.2-6.2 0.3-11.7-2.5-15.6-7.5 1.6 0.9 3.7 1.4 5.7 1.4z"/><path class="c" d="m102.7 28.6c0 0-0.3 0-0.5 0-5.7 0-10.4 4.6-10.4 10.3 0 0.6 0.2 1.8 0.2 1.8 0.1 0.9 0.3 2.1 0.6 2.8 2.3 7.4 9.6 13.8 19.2 13.3-2.8 1.5-6.1 2.4-9.6 2.4-11.2 0-20.3-9.1-20.3-20.2 0-3.5 0.9-6.8 2.4-9.6 3.1-1.9 6.5-3 10.4-2.9 0 0 3.8-0.1 8 2.1z"/></svg>