<?xml version="1.0" encoding="utf-8"?>
<!-- Generator: Adobe Illustrator 19.2.1, SVG Export Plug-In . SVG Version: 6.00 Build 0)  -->
<svg version="1.1" id="layer" xmlns="http://www.w3.org/2000/svg" xmlns:xlink="http://www.w3.org/1999/xlink" x="0px" y="0px"
	 viewBox="0 0 652 652" style="enable-background:new 0 0 652 652;" xml:space="preserve">
<style type="text/css">
	.st0{fill:#1BAAE5;}
	.st1{clip-path:url(#SVGID_2_);fill:#FFFFFF;}
	.st2{clip-path:url(#SVGID_2_);fill:none;stroke:#FFFFFF;stroke-width:0.4266;}
	.st3{clip-path:url(#SVGID_2_);fill:none;stroke:#FFFFFF;stroke-width:0.7096;}
	.st4{clip-path:url(#SVGID_2_);fill:none;stroke:#FFFFFF;stroke-width:0.566;}
</style>
<rect x="16.7" y="195.4" class="st0" width="600" height="243.1"/>
<g>
	<defs>
		<rect id="SVGID_1_" x="16.7" y="195.4" width="600" height="243.1"/>
	</defs>
	<clipPath id="SVGID_2_">
		<use xlink:href="#SVGID_1_"  style="overflow:visible;"/>
	</clipPath>
	<path class="st1" d="M327.6,287c0-7.7-8-8-17.4-9.7v-1.6h30.1l21.6,30.8h0.2l20.6-30.8h12.9v68.9h-9.3v-63.8H386l-21.7,35.1
		l-4.2,5.4l-26.8-40.5h-0.2v63.8h-5.5V287z"/>
	<path class="st1" d="M282.1,307.4c-5.1-3.8-9-8.1-9-15c0-8,5.2-13.1,13-13.1c7.5,0,14.3,3.5,17.7,5.4v-9.2
		c-3.1-0.8-8.9-2.1-15.8-2.1c-14.2,0-23.3,7.8-23.3,22.1c0,3.1,0.5,5.7,1.2,8.1C271.6,304.7,277.1,305.9,282.1,307.4"/>
	<path class="st1" d="M223,305.4c-18.8,0-36.1,5.5-50.2,9c1.7,1.1,3.4-1.1,5.1,0c12.1-2.7,26.4-4.3,41.7-4.3
		c43.7,0,80.1,11.8,80.1,27.6c0,8.2-10.7,16.6-26.1,21.8c21.3-5.5,35.1-14.2,35.1-24.2C308.7,318.8,270.3,305.4,223,305.4"/>
	<path class="st1" d="M445,340.2h-11.2c-7.6,0-8.5,0-8.5-5.9v-21.4h18.3v-5.2h-18.3v-21.3c0-5.5,0.4-6.7,6.4-6.7h10.9
		c8.6,0,8.5,3.2,9.6,8.5h3.2l-0.5-12.4H400v1.7c9.1,1.2,16.1,3.2,16.1,9v57.8h40.4l0.7-13.8C457.2,330.3,452,340.2,445,340.2"/>
	<path class="st1" d="M193.2,344.3h6.7l25.6-60.3l23.1,60.3c7-0.2,7.7,3.4,11,4l-29.1-74.4h-26.1v1.6c5.3,1.1,16.1,2,16.1,4.5
		c0,1.5-0.8,3.5-1.6,5.2L193.2,344.3z"/>
	<path class="st1" d="M191.3,376.9c0.2,0.4,0.4,1,0.4,1.3l0,0.2l-0.3,0.3c-0.6,0.7-1.7,1.7-3.7,1.8c-0.7,0-1.6-0.1-2.2-0.5l-0.4-0.2
		l0.7-1.1l0.3,0.2c0.6,0.3,1.1,0.5,1.9,0.5c0.8,0,1.7-0.5,2-0.8l0.2-0.2l-0.1-0.2c-0.1-0.3-0.2-0.7-0.4-1c-0.2-0.3-0.4-0.6-0.7-1
		l-0.5-0.6c-0.4-0.5-0.7-0.9-0.9-1.3c-0.2-0.4-0.3-0.7-0.4-1l-0.1-0.3l0.2-0.2c0.6-0.7,1.5-1.4,2.6-1.7c0.8-0.2,1.8-0.4,2.9-0.3
		l0.4,0l-0.4,1.2l-0.6,0c-0.4,0-0.8,0-1.5,0.1c-0.7,0.1-1.4,0.5-1.8,0.8l-0.2,0.2l0.1,0.2c0.1,0.3,0.2,0.6,0.4,0.9
		c0.2,0.3,0.4,0.6,0.8,1l0.5,0.6C190.8,376.2,191.1,376.6,191.3,376.9"/>
	<path class="st2" d="M191.3,376.9c0.2,0.4,0.4,1,0.4,1.3l0,0.2l-0.3,0.3c-0.6,0.7-1.7,1.7-3.7,1.8c-0.7,0-1.6-0.1-2.2-0.5l-0.4-0.2
		l0.7-1.1l0.3,0.2c0.6,0.3,1.1,0.5,1.9,0.5c0.8,0,1.7-0.5,2-0.8l0.2-0.2l-0.1-0.2c-0.1-0.3-0.2-0.7-0.4-1c-0.2-0.3-0.4-0.6-0.7-1
		l-0.5-0.6c-0.4-0.5-0.7-0.9-0.9-1.3c-0.2-0.4-0.3-0.7-0.4-1l-0.1-0.3l0.2-0.2c0.6-0.7,1.5-1.4,2.6-1.7c0.8-0.2,1.8-0.4,2.9-0.3
		l0.4,0l-0.4,1.2l-0.6,0c-0.4,0-0.8,0-1.5,0.1c-0.7,0.1-1.4,0.5-1.8,0.8l-0.2,0.2l0.1,0.2c0.1,0.3,0.2,0.6,0.4,0.9
		c0.2,0.3,0.4,0.6,0.8,1l0.5,0.6C190.8,376.2,191.1,376.6,191.3,376.9z"/>
	<polygon class="st1" points="201,379.3 204.7,379.3 204.4,380.4 199.3,380.4 202,371.6 202,370.8 207.2,370.8 206.9,371.9 
		203.3,371.9 202.3,375 205.9,375 205.6,376 202,376 	"/>
	<polygon class="st2" points="201,379.3 204.7,379.3 204.4,380.4 199.3,380.4 202,371.6 202,370.8 207.2,370.8 206.9,371.9 
		203.3,371.9 202.3,375 205.9,375 205.6,376 202,376 	"/>
	<polygon class="st1" points="215.8,380.4 214.1,380.4 216.7,372 214,372 214.4,370.8 221.1,370.8 220.7,372 218.1,372 215.8,379.6 
			"/>
	<polygon class="st2" points="215.8,380.4 214.1,380.4 216.7,372 214,372 214.4,370.8 221.1,370.8 220.7,372 218.1,372 215.8,379.6 
			"/>
	<polygon class="st1" points="228.7,380.4 227,380.4 229.7,372 226.9,372 227.3,370.8 234,370.8 233.7,372 231,372 228.7,379.6 	"/>
	<polygon class="st2" points="228.7,380.4 227,380.4 229.7,372 226.9,372 227.3,370.8 234,370.8 233.7,372 231,372 228.7,379.6 	"/>
	<polygon class="st1" points="243.2,370.8 240.5,379.6 240.5,380.4 238.8,380.4 241.5,371.6 241.5,370.8 	"/>
	<polygon class="st2" points="243.2,370.8 240.5,379.6 240.5,380.4 238.8,380.4 241.5,371.6 241.5,370.8 	"/>
	<path class="st1" d="M256.1,380.4l-0.3-0.3c-0.4-0.5-1-1.4-1.4-2.5c-0.5-1.4-0.8-3.1-0.8-4.4v-0.9l-2.3,7.3v0.8h-1.6l3-9.5h2.1v0.6
		c0,1.3,0.1,2.9,0.5,4.4c0.3,1.3,0.8,2.2,1.1,2.7l0.1,0.2l2.2-7.2v-0.8h1.6l-3,9.5H256.1z"/>
	<path class="st2" d="M256.1,380.4l-0.3-0.3c-0.4-0.5-1-1.4-1.4-2.5c-0.5-1.4-0.8-3.1-0.8-4.4v-0.9l-2.3,7.3v0.8h-1.6l3-9.5h2.1v0.6
		c0,1.3,0.1,2.9,0.5,4.4c0.3,1.3,0.8,2.2,1.1,2.7l0.1,0.2l2.2-7.2v-0.8h1.6l-3,9.5H256.1z"/>
	<path class="st1" d="M274.4,370.8l1.2,0.1l-0.4,1.2l-1-0.1c-2.9-0.2-4.5,1-5.1,3.2c-0.5,1.7,0.3,3.2,0.9,3.9l0.3,0.3l0.2,0
		c0.6-0.1,1.3-0.4,2-0.9c0.8-0.5,1.2-1.2,1.3-1.6l0.1-0.3h-2.3l0.3-1h3.6l-0.3,1c-0.3,1.2-0.9,2.1-1.8,2.7c-1.2,0.8-2.8,1.3-3.4,1.4
		l-0.5,0.1l-0.4-0.4c-1.3-1.3-2.1-3.2-1.7-5.1C268.1,372.2,271,370.5,274.4,370.8"/>
	<path class="st2" d="M274.4,370.8l1.2,0.1l-0.4,1.2l-1-0.1c-2.9-0.2-4.5,1-5.1,3.2c-0.5,1.7,0.3,3.2,0.9,3.9l0.3,0.3l0.2,0
		c0.6-0.1,1.3-0.4,2-0.9c0.8-0.5,1.2-1.2,1.3-1.6l0.1-0.3h-2.3l0.3-1h3.6l-0.3,1c-0.3,1.2-0.9,2.1-1.8,2.7c-1.2,0.8-2.8,1.3-3.4,1.4
		l-0.5,0.1l-0.4-0.4c-1.3-1.3-2.1-3.2-1.7-5.1C268.1,372.2,271,370.5,274.4,370.8z"/>
	<polygon class="st1" points="294.4,380.4 292.8,380.4 295.4,372 292.7,372 293.1,370.8 299.8,370.8 299.4,372 296.8,372 
		294.4,379.6 	"/>
	<polygon class="st2" points="294.4,380.4 292.8,380.4 295.4,372 292.7,372 293.1,370.8 299.8,370.8 299.4,372 296.8,372 
		294.4,379.6 	"/>
	<polygon class="st1" points="307.3,376 306.2,379.6 306.2,380.4 304.5,380.4 307.3,371.6 307.3,370.8 308.9,370.8 307.6,375 
		311.8,375 312.8,371.6 312.8,370.8 314.4,370.8 311.7,379.6 311.7,380.4 310.1,380.4 311.5,376 	"/>
	<polygon class="st2" points="307.3,376 306.2,379.6 306.2,380.4 304.5,380.4 307.3,371.6 307.3,370.8 308.9,370.8 307.6,375 
		311.8,375 312.8,371.6 312.8,370.8 314.4,370.8 311.7,379.6 311.7,380.4 310.1,380.4 311.5,376 	"/>
	<polygon class="st1" points="322.7,379.3 326.4,379.3 326.1,380.4 321,380.4 323.7,371.6 323.7,370.8 328.8,370.8 328.5,371.9 
		325,371.9 324,375 327.6,375 327.2,376 323.7,376 	"/>
	<polygon class="st2" points="322.7,379.3 326.4,379.3 326.1,380.4 321,380.4 323.7,371.6 323.7,370.8 328.8,370.8 328.5,371.9 
		325,371.9 324,375 327.6,375 327.2,376 323.7,376 	"/>
	<path class="st1" d="M347,376.9c0.2,0.4,0.4,1,0.4,1.3l0,0.2l-0.3,0.3c-0.6,0.7-1.7,1.7-3.7,1.8c-0.7,0-1.5-0.1-2.2-0.5l-0.4-0.2
		l0.7-1.1l0.3,0.2c0.6,0.3,1.1,0.5,1.9,0.5c0.8,0,1.7-0.5,2-0.8l0.2-0.2l-0.1-0.2c-0.1-0.3-0.2-0.7-0.4-1c-0.2-0.3-0.4-0.6-0.7-1
		l-0.5-0.6c-0.4-0.5-0.7-0.9-0.9-1.3c-0.2-0.4-0.3-0.7-0.4-1l-0.1-0.3l0.2-0.2c0.6-0.7,1.5-1.4,2.6-1.7c0.8-0.2,1.8-0.4,2.9-0.3
		l0.4,0l-0.4,1.2l-0.6,0c-0.4,0-0.8,0-1.5,0.1c-0.7,0.1-1.4,0.5-1.8,0.8l-0.2,0.2l0.1,0.2c0.1,0.3,0.2,0.6,0.4,0.9
		c0.2,0.3,0.4,0.6,0.8,1l0.5,0.6C346.5,376.2,346.8,376.6,347,376.9"/>
	<path class="st2" d="M347,376.9c0.2,0.4,0.4,1,0.4,1.3l0,0.2l-0.3,0.3c-0.6,0.7-1.7,1.7-3.7,1.8c-0.7,0-1.5-0.1-2.2-0.5l-0.4-0.2
		l0.7-1.1l0.3,0.2c0.6,0.3,1.1,0.5,1.9,0.5c0.8,0,1.7-0.5,2-0.8l0.2-0.2l-0.1-0.2c-0.1-0.3-0.2-0.7-0.4-1c-0.2-0.3-0.4-0.6-0.7-1
		l-0.5-0.6c-0.4-0.5-0.7-0.9-0.9-1.3c-0.2-0.4-0.3-0.7-0.4-1l-0.1-0.3l0.2-0.2c0.6-0.7,1.5-1.4,2.6-1.7c0.8-0.2,1.8-0.4,2.9-0.3
		l0.4,0l-0.4,1.2l-0.6,0c-0.4,0-0.8,0-1.5,0.1c-0.7,0.1-1.4,0.5-1.8,0.8l-0.2,0.2l0.1,0.2c0.1,0.3,0.2,0.6,0.4,0.9
		c0.2,0.3,0.4,0.6,0.8,1l0.5,0.6C346.5,376.2,346.8,376.6,347,376.9z"/>
	<polygon class="st1" points="357.8,380.4 356.2,380.4 358.8,372 356.1,372 356.4,370.8 363.2,370.8 362.8,372 360.1,372 
		357.8,379.6 	"/>
	<polygon class="st2" points="357.8,380.4 356.2,380.4 358.8,372 356.1,372 356.4,370.8 363.2,370.8 362.8,372 360.1,372 
		357.8,379.6 	"/>
	<path class="st1" d="M373,372.1l-3.3,4.8h2.8v-0.3c0-0.5,0-0.7,0.1-1.6c0.1-0.7,0.2-1.7,0.3-2.3L373,372.1z M372.6,377.9H369
		l-1.8,2.6l-1.3-0.3l6.8-9.4h1.9l-0.2,0.8c-0.3,1.4-0.6,3.3-0.5,5.4c0.1,1.5,0.3,2.4,0.5,3l0.1,0.3l-1.3,0.3l-0.1-0.3
		c-0.1-0.2-0.1-0.5-0.2-0.8c-0.1-0.4-0.1-0.9-0.1-1.2L372.6,377.9z"/>
	<path class="st2" d="M373,372.1l-3.3,4.8h2.8v-0.3c0-0.5,0-0.7,0.1-1.6c0.1-0.7,0.2-1.7,0.3-2.3L373,372.1z M372.6,377.9H369
		l-1.8,2.6l-1.3-0.3l6.8-9.4h1.9l-0.2,0.8c-0.3,1.4-0.6,3.3-0.5,5.4c0.1,1.5,0.3,2.4,0.5,3l0.1,0.3l-1.3,0.3l-0.1-0.3
		c-0.1-0.2-0.1-0.5-0.2-0.8c-0.1-0.4-0.1-0.9-0.1-1.2L372.6,377.9z"/>
	<path class="st1" d="M388.4,380.4l-0.3-0.3c-0.4-0.5-1-1.4-1.4-2.5c-0.5-1.4-0.8-3.1-0.8-4.4v-0.9l-2.3,7.3v0.8h-1.6l3-9.5h2v0.6
		c0,1.3,0.1,2.9,0.5,4.4c0.3,1.3,0.8,2.2,1.1,2.7l0.1,0.2l2.2-7.2v-0.8h1.6l-3,9.5H388.4z"/>
	<path class="st2" d="M388.4,380.4l-0.3-0.3c-0.4-0.5-1-1.4-1.4-2.5c-0.5-1.4-0.8-3.1-0.8-4.4v-0.9l-2.3,7.3v0.8h-1.6l3-9.5h2v0.6
		c0,1.3,0.1,2.9,0.5,4.4c0.3,1.3,0.8,2.2,1.1,2.7l0.1,0.2l2.2-7.2v-0.8h1.6l-3,9.5H388.4z"/>
	<path class="st1" d="M403.2,371.9l-2.3,7.5h0.8c1.7,0,3.7-0.6,4.9-2.6c1-1.7,0.7-3.6,0.3-4.5l-0.2-0.4H403.2z M402.1,380.5l-2.9,0
		l2.7-8.9v-0.8h5.9l0.4,0.8c0.7,1.5,0.7,3.6,0.1,5C407,379.4,404.2,380.4,402.1,380.5"/>
	<path class="st2" d="M403.2,371.9l-2.3,7.5h0.8c1.7,0,3.7-0.6,4.9-2.6c1-1.7,0.7-3.6,0.3-4.5l-0.2-0.4H403.2z M402.1,380.5l-2.9,0
		l2.7-8.9v-0.8h5.9l0.4,0.8c0.7,1.5,0.7,3.6,0.1,5C407,379.4,404.2,380.4,402.1,380.5z"/>
	<path class="st1" d="M421.5,372.1l-3.3,4.8h2.8v-0.3c0-0.5,0-0.7,0.1-1.6c0.1-0.7,0.2-1.7,0.3-2.3L421.5,372.1z M421.1,377.9h-3.6
		l-1.8,2.6l-1.3-0.3l6.8-9.4h1.9l-0.2,0.8c-0.3,1.4-0.6,3.3-0.5,5.4c0.1,1.5,0.3,2.4,0.5,3l0.1,0.3l-1.3,0.3l-0.1-0.3
		c-0.1-0.2-0.1-0.5-0.2-0.8c-0.1-0.4-0.1-0.9-0.2-1.2L421.1,377.9z"/>
	<path class="st2" d="M421.5,372.1l-3.3,4.8h2.8v-0.3c0-0.5,0-0.7,0.1-1.6c0.1-0.7,0.2-1.7,0.3-2.3L421.5,372.1z M421.1,377.9h-3.6
		l-1.8,2.6l-1.3-0.3l6.8-9.4h1.9l-0.2,0.8c-0.3,1.4-0.6,3.3-0.5,5.4c0.1,1.5,0.3,2.4,0.5,3l0.1,0.3l-1.3,0.3l-0.1-0.3
		c-0.1-0.2-0.1-0.5-0.2-0.8c-0.1-0.4-0.1-0.9-0.2-1.2L421.1,377.9z"/>
	<path class="st1" d="M434.6,371.9l-1.2,3.7h0.5c1.4,0,2.3-0.4,3-1c0.7-0.7,0.7-1.7,0.5-2.4l-0.1-0.3H434.6z M434.7,377l-0.1-0.3
		h-1.5l-0.9,2.9v0.8h-1.6l2.7-8.8v-0.8h5l0.2,0.5c0.4,0.9,0.6,2,0.1,3.1c-0.6,1-1.7,1.6-2.4,1.8l-0.3,0.1l0.2,0.7
		c0.1,0.3,0.5,1.1,0.7,1.4c0.3,0.5,0.9,1.1,2.1,1l0.3,0l-0.4,1.1l-0.6,0c-1.1,0-2.1-0.6-2.7-1.5C435.2,378.4,434.9,377.7,434.7,377"
		/>
	<path class="st2" d="M434.6,371.9l-1.2,3.7h0.5c1.4,0,2.3-0.4,3-1c0.7-0.7,0.7-1.7,0.5-2.4l-0.1-0.3H434.6z M434.7,377l-0.1-0.3
		h-1.5l-0.9,2.9v0.8h-1.6l2.7-8.8v-0.8h5l0.2,0.5c0.4,0.9,0.6,2,0.1,3.1c-0.6,1-1.7,1.6-2.4,1.8l-0.3,0.1l0.2,0.7
		c0.1,0.3,0.5,1.1,0.7,1.4c0.3,0.5,0.9,1.1,2.1,1l0.3,0l-0.4,1.1l-0.6,0c-1.1,0-2.1-0.6-2.7-1.5C435.2,378.4,434.9,377.7,434.7,377z
		"/>
	<path class="st1" d="M450.4,371.9l-2.3,7.5h0.8c1.7,0,3.7-0.6,4.9-2.6c1-1.7,0.7-3.6,0.3-4.5l-0.2-0.4H450.4z M449.3,380.5l-2.9,0
		l2.7-8.9v-0.8h5.9l0.4,0.8c0.7,1.5,0.7,3.6,0.1,5C454.2,379.4,451.4,380.4,449.3,380.5"/>
	<path class="st2" d="M450.4,371.9l-2.3,7.5h0.8c1.7,0,3.7-0.6,4.9-2.6c1-1.7,0.7-3.6,0.3-4.5l-0.2-0.4H450.4z M449.3,380.5l-2.9,0
		l2.7-8.9v-0.8h5.9l0.4,0.8c0.7,1.5,0.7,3.6,0.1,5C454.2,379.4,451.4,380.4,449.3,380.5z"/>
	<path class="st1" d="M321.4,251.5c-5.8,3.1-13.1,2.6-14.9-0.8c-1.8-3.4,2-9.1,7.8-12.2c5.8-3.1,12.5-3.2,14.6,0.7
		C330.6,242.6,327.2,248.4,321.4,251.5 M314,238c-6.3,3.4-9.7,9.2-7.8,12.9c2,3.7,9.3,4,15.6,0.6c6.3-3.4,9.1-9.1,7.2-12.8
		C327,235.1,320.3,234.7,314,238"/>
	<path class="st3" d="M321.4,251.5c-5.8,3.1-13.1,2.6-14.9-0.8c-1.8-3.4,2-9.1,7.8-12.2c5.8-3.1,12.5-3.2,14.6,0.7
		C330.6,242.6,327.2,248.4,321.4,251.5z M314,238c-6.3,3.4-9.7,9.2-7.8,12.9c2,3.7,9.3,4,15.6,0.6c6.3-3.4,9.1-9.1,7.2-12.8
		C327,235.1,320.3,234.7,314,238z"/>
	<path class="st1" d="M320.8,239.1c-20.9,8.4-31.8,30.6-26.6,49.1l0.5-0.4c-6.3-17.5,6.8-40.2,26.9-48.2
		c22.5-8.9,42.1,2.2,48.5,20.6l-0.1,0C364.4,240.2,342.4,230.4,320.8,239.1"/>
	<path class="st4" d="M320.8,239.1c-20.9,8.4-31.8,30.6-26.6,49.1l0.5-0.4c-6.3-17.5,6.8-40.2,26.9-48.2
		c22.5-8.9,42.1,2.2,48.5,20.6l-0.1,0C364.4,240.2,342.4,230.4,320.8,239.1z"/>
	<path class="st1" d="M294,260.8c2.8-9.9,9.3-18.7,19-23.9c19.1-10.1,44-2.8,54.1,16.4c10.2,19.2,4.3,43.2-16.9,54.6
		c-20.2,11-44.1,2.2-54.4-17.2c-4-7.6-4-16-3-24.1C293.1,264.6,293.5,262.6,294,260.8 M312.6,236.2c-19.8,10.5-27.3,35.2-16.7,55.1
		c10.6,19.9,35.2,27.5,55,16.9c19.8-10.5,27.3-35.2,16.7-55.1C357.1,233.3,332.5,225.7,312.6,236.2"/>
	<path class="st4" d="M294,260.8c2.8-9.9,9.3-18.7,19-23.9c19.1-10.1,44-2.8,54.1,16.4c10.2,19.2,4.3,43.2-16.9,54.6
		c-20.2,11-44.1,2.2-54.4-17.2c-4-7.6-4-16-3-24.1C293.1,264.6,293.5,262.6,294,260.8 M312.6,236.2c-19.8,10.5-27.3,35.2-16.7,55.1
		c10.6,19.9,35.2,27.5,55,16.9c19.8-10.5,27.3-35.2,16.7-55.1C357.1,233.3,332.5,225.7,312.6,236.2z"/>
	<path class="st1" d="M338.2,258.8c-11.4-14.9-25.1-22.5-29.9-20l-1,0.6c4.6-2.5,19.7,6.1,30.7,20.5c13.1,17.1,19.3,37.4,17.4,43.9
		c-0.2,0.4-0.8,1.8-0.8,1.8c0.2-0.3,0.4-0.6,0.6-1C358.2,297.3,351.5,276.1,338.2,258.8"/>
	<path class="st4" d="M338.2,258.8c-11.4-14.9-25.1-22.5-29.9-20l-1,0.6c4.6-2.5,19.7,6.1,30.7,20.5c13.1,17.1,19.3,37.4,17.4,43.9
		c-0.2,0.4-0.8,1.8-0.8,1.8c0.2-0.3,0.4-0.6,0.6-1C358.2,297.3,351.5,276.1,338.2,258.8z"/>
	<path class="st1" d="M343.5,311.6c-13.7,0.6-28.1-15.6-31.5-38.4c-2.3-20.3,5.3-38.3,17.6-40.8c0.6-0.1,1.3-0.2,1.9-0.3l0.2-0.7
		c-0.7,0.1-1.3,0.1-1.9,0.3c-12.8,2.7-21.5,20.3-18.6,41.2c3.1,22.1,17.5,39.7,32,38.6c0.3,0,0.1,0.3-0.3,0.4L343.5,311.6z"/>
	<path class="st4" d="M343.5,311.6c-13.7,0.6-28.1-15.6-31.5-38.4c-2.3-20.3,5.3-38.3,17.6-40.8c0.6-0.1,1.3-0.2,1.9-0.3l0.2-0.7
		c-0.7,0.1-1.3,0.1-1.9,0.3c-12.8,2.7-21.5,20.3-18.6,41.2c3.1,22.1,17.5,39.7,32,38.6c0.3,0,0.1,0.3-0.3,0.4L343.5,311.6z"/>
	<path class="st1" d="M352.3,251.9c-16.5-14.9-40.9-14.7-54.9-1.8l0.6,0.3c13.5-12.4,38.2-12,54,2.4c17.1,16.2,17.7,39.1,3.4,52.4
		l0-0.1C370.4,291.3,369.4,267.3,352.3,251.9"/>
	<path class="st4" d="M352.3,251.9c-16.5-14.9-40.9-14.7-54.9-1.8l0.6,0.3c13.5-12.4,38.2-12,54,2.4c17.1,16.2,17.7,39.1,3.4,52.4
		l0-0.1C370.4,291.3,369.4,267.3,352.3,251.9z"/>
	<path class="st1" d="M369,256.9c0,0.3,0,0.5,0,0.8c0,0.7,1.5,6.2,0.3,10.6c-2,9.3-8.8,17.8-18.9,24.6c-13.6,9.2-29.8,12.9-41.7,8.3
		c-4.1-1.1-7.6-3.9-10.1-6.7c-0.6-0.7-1.1-1.4-1.6-2.1c0.7,1.3,1.5,2.7,2.6,3.9c10,10.8,33,9.6,51.2-2.6
		C366.6,283.2,373.7,267.9,369,256.9"/>
	<path class="st4" d="M369,256.9c0,0.3,0,0.5,0,0.8c0,0.7,1.5,6.2,0.3,10.6c-2,9.3-8.8,17.8-18.9,24.6c-13.6,9.2-29.8,12.9-41.7,8.3
		c-4.1-1.1-7.6-3.9-10.1-6.7c-0.6-0.7-1.1-1.4-1.6-2.1c0.7,1.3,1.5,2.7,2.6,3.9c10,10.8,33,9.6,51.2-2.6
		C366.6,283.2,373.7,267.9,369,256.9z"/>
	<path class="st1" d="M291.2,269.1c0,0.1,0.1,0.2,0.2,0.3c5.3,9.8,22.8,10.5,39.3,1.3c16.6-9.2,25-24.3,19.8-34.4l-1-0.1
		c4.9,9.5-3.1,25-18.8,33.7c-15.7,8.7-33.8,8.4-38.7-1.1L291.2,269.1z"/>
	<path class="st4" d="M291.2,269.1c0,0.1,0.1,0.2,0.2,0.3c5.3,9.8,22.8,10.5,39.3,1.3c16.6-9.2,25-24.3,19.8-34.4l-1-0.1
		c4.9,9.5-3.1,25-18.8,33.7c-15.7,8.7-33.8,8.4-38.7-1.1L291.2,269.1z"/>
	<polygon class="st1" points="177.9,396 460.6,396 321.3,402.7 	"/>
</g>
</svg>
