<svg version="1.2" xmlns="http://www.w3.org/2000/svg" viewBox="0 0 85 29" width="85" height="29"><style>.a{fill:#0798b6;stroke:#0798b6;stroke-linecap:round;stroke-linejoin:round;stroke-width:2}.b{fill:#fff}</style><path  d="m0 14.5c0-8 6.5-14.5 14.5-14.5h70.5v29h-70.5c-8 0-14.5-6.5-14.5-14.5z"/><path class="a" d="m24.4 14.8q0.1 0.1 0.1 0.2 0 0.1-0.1 0.2 0 0.2-0.1 0.2l-9 5.5q-0.2 0.1-0.3 0.1-0.1 0-0.2-0.1-0.2 0-0.2-0.1-0.1-0.2-0.1-0.3v-11q0-0.1 0.1-0.3 0-0.1 0.2-0.1 0.1-0.1 0.2-0.1 0.1 0 0.3 0.1l9 5.5q0.1 0 0.1 0.2z"/><path fill-rule="evenodd" class="b" d="m34 20q-0.6-1.2-1.1-2.5-0.6-1.3-1.1-2.6-0.5-1.3-0.9-2.5-0.5-1.2-0.8-2.1h2.4q0.3 0.8 0.6 1.8 0.4 1 0.7 2 0.4 0.9 0.7 1.8 0.3 0.9 0.6 1.5 0.3-0.6 0.6-1.5 0.3-0.9 0.7-1.8 0.3-1 0.6-2 0.4-1 0.6-1.8h2.4q-0.4 0.9-0.8 2.1-0.4 1.2-0.9 2.5-0.5 1.3-1.1 2.6-0.5 1.3-1.1 2.5zm7.2-9.7h2.2v9.7h-2.2zm13 4.8q0 1.3-0.4 2.2-0.4 1-1.2 1.6-0.7 0.6-1.7 0.9-1 0.3-2.3 0.3-0.6 0-1.4 0-0.8-0.1-1.5-0.2v-9.5q0.7-0.1 1.5-0.2 0.8 0 1.4 0 1.3 0 2.3 0.3 1 0.2 1.7 0.9 0.8 0.6 1.2 1.5 0.4 0.9 0.4 2.2zm-6.4 3.1q0.2 0 0.4 0.1 0.2 0 0.5 0 1.6 0 2.4-0.9 0.8-0.8 0.8-2.3 0-1.5-0.8-2.3-0.7-0.8-2.4-0.8-0.2 0.1-0.4 0.1-0.3 0-0.5 0zm8.2 1.8v-9.7h6.5v1.8h-4.3v1.9h3.8v1.8h-3.8v2.3h4.6v1.9zm17.5-4.9q0 1.3-0.3 2.2-0.4 0.9-1.1 1.6-0.6 0.6-1.5 0.9-0.9 0.4-1.9 0.4-1 0-1.9-0.4-0.9-0.3-1.5-0.9-0.7-0.7-1-1.6-0.4-0.9-0.4-2.2 0-1.2 0.4-2.2 0.4-0.9 1-1.6 0.7-0.6 1.6-0.9 0.8-0.4 1.8-0.4 1 0 1.9 0.4 0.9 0.3 1.5 0.9 0.7 0.7 1.1 1.6 0.3 1 0.3 2.2zm-7.4 0q0 0.7 0.2 1.3 0.2 0.6 0.5 1 0.3 0.4 0.8 0.6 0.5 0.2 1.1 0.2 0.6 0 1.1-0.2 0.5-0.2 0.8-0.6 0.3-0.4 0.5-1 0.2-0.6 0.2-1.3 0-0.7-0.2-1.3-0.2-0.6-0.5-1-0.3-0.4-0.8-0.6-0.5-0.2-1.1-0.2-0.6 0-1.1 0.2-0.5 0.2-0.8 0.6-0.3 0.5-0.5 1-0.2 0.6-0.2 1.3z"/></svg>