<svg width="179" height="267" viewBox="0 0 179 267" fill="none" xmlns="http://www.w3.org/2000/svg">
<path d="M49.389 262.083C45.7838 261.933 38.7186 255.069 36.5561 253.275C34.3936 251.48 35.9784 249.689 33.3865 250.143C30.7884 250.588 32.5184 248.052 33.9611 247.303C35.2864 246.609 33.4452 244.066 31.6812 243.654C31.4897 247.661 30.6833 265.655 31.7244 265.831C32.7748 266.017 40.427 264.904 42.6821 266.43C43.5502 266.717 44.7365 267.44 45.6416 266.417C47.0843 264.773 51.4093 265.671 53.7201 264.178C56.0247 262.681 52.9973 262.236 49.389 262.083ZM129.284 26.3388C128.629 25.9997 126.636 25.9933 125.008 26.0509C125.002 26.3036 125.008 26.5339 125.033 26.7386C125.425 29.5691 123.668 36.8423 121.715 36.6408C119.763 36.4425 118.203 39.6729 116.639 39.2699C115.079 38.8637 112.926 41.6942 110.977 40.4788C109.024 39.2698 106.297 40.885 104.733 39.8711C103.17 38.8668 98.6784 39.6728 98.6784 38.467C98.6784 37.2517 100.829 37.6547 100.829 34.0118C100.829 30.3752 106.68 26.3356 105.904 24.9219C105.126 23.5018 95.1659 20.4729 93.8035 18.6562C92.435 16.8395 90.4826 15.2148 86.5808 14.8182C82.6729 14.412 82.8736 12.3906 79.3581 10.1677C76.4263 8.3094 71.8696 3.36467 70.3312 0.598054C67.9493 0.345381 64.5789 -0.172719 63.9054 0.658863C62.9447 1.85506 61.4093 7.42665 60.0624 4.64085C58.7155 1.85505 55.447 1.85502 52.5647 1.45202C49.6793 1.05862 49.874 -1.72712 46.794 1.65358C45.4254 3.16322 43.646 4.65041 42.0334 5.72507C41.8418 8.94266 41.2734 12.5665 40.705 13.5995C39.9234 15.0164 33.4853 18.0485 33.2876 19.6637C33.0899 21.2789 34.0661 23.5018 32.8984 24.5189C31.7275 25.5232 35.6293 30.5767 33.4853 31.7889C31.3352 33.0074 35.0454 35.0288 33.6769 36.2378C32.3114 37.4468 29.7751 38.0545 29.7751 39.4682C29.7751 40.8883 29.5805 44.3234 27.8227 45.1325C26.0649 45.9417 24.894 48.9706 24.894 51.1967C24.894 53.4228 22.16 51.9995 23.1393 54.8332C24.1125 57.667 25.2833 61.1054 23.1393 61.7066C20.9892 62.3111 21.5762 66.9648 20.4022 66.9648C19.2314 66.9648 18.6444 71.8136 20.4022 74.2347C22.16 76.6623 22.5524 78.6837 22.5524 80.9066C22.5524 83.1231 24.8909 84.3417 24.1094 86.7661C23.3309 89.1936 23.7232 91.4165 22.3547 92.4272C20.9892 93.4379 22.16 96.4699 20.4022 97.2791C18.6475 98.0915 21.7677 104.552 20.4022 105.768C19.0368 106.986 15.5212 107.991 15.5212 112.44C15.5212 116.889 16.1823 119.399 15.7158 121.334C15.3265 122.949 17.6682 122.537 17.279 125.172C16.8897 127.792 13.7634 126.177 13.5718 127.792C13.3772 129.41 14.3503 132.647 13.1826 132.848C12.0117 133.05 11.4248 134.259 11.4248 137.093C11.4248 139.917 9.86467 140.323 9.67314 141.743C9.47542 143.154 11.0355 144.775 11.0355 146.384C11.0355 148.009 12.0086 153.462 10.6463 153.664C9.2808 153.865 8.49921 159.929 9.67314 160.739C10.8409 161.544 10.8409 163.166 10.257 164.378C9.67317 165.587 12.988 166.796 11.2302 168.623C9.47546 170.439 10.8687 172.774 13.1826 172.054C15.135 171.453 16.3059 175.08 14.1588 175.08C12.0118 175.08 9.86162 175.08 11.6225 176.5C13.3803 177.911 15.135 179.932 12.5987 180.946C10.0593 181.953 12.2095 183.773 11.6225 186.201C11.0355 188.629 13.3803 190.851 11.4279 191.459C9.47545 192.06 12.2064 195.703 9.47544 196.11C6.74451 196.509 8.49922 199.138 6.7445 200.559C4.98361 201.969 9.08622 204.397 6.93608 205.81C4.79212 207.218 6.35219 210.454 4.20514 210.454C2.055 210.454 0.884165 213.49 0.689541 214.903C0.494916 216.314 -0.870535 219.154 0.884176 221.169C2.64198 223.19 0.494898 224.812 2.0519 225.618C3.61816 226.427 8.88538 225.212 8.1038 227.639C7.3253 230.067 7.51992 235.322 8.49613 235.322C9.47234 235.322 10.0562 238.348 11.6194 238.149C13.1795 237.948 20.2076 237.142 23.1393 237.948C24.5851 238.344 25.793 239.24 26.6457 240.04C28.32 239.275 31.9809 241.744 32.8088 240.89C33.819 239.844 29.2036 235.965 29.3488 234.625C29.4909 233.278 28.6259 231.033 28.6259 229.542C28.6259 228.052 27.9061 224.77 29.9234 223.27C31.9407 221.78 32.0859 220.286 33.3865 220.59C34.6809 220.884 37.2789 219.391 37.4241 215.809C37.5663 212.223 39.1542 210.883 42.0395 208.34C45.1813 205.58 50.4023 202.97 49.6825 201.771C48.9627 200.581 50.8347 196.695 50.8347 195.204C50.8347 193.708 45.9351 194.008 44.3442 193.41C42.7593 192.809 36.9917 188.632 39.8771 183.111C42.7594 177.581 48.8175 176.983 50.5475 176.836C52.2775 176.686 50.6896 174.149 52.1323 173.254C53.575 172.358 53.8623 170.868 53.8623 168.626C53.8623 166.086 53.8622 162.056 56.4572 161.759C59.0553 161.458 59.7751 159.964 58.1903 159.523C56.6055 159.069 55.8826 157.137 58.4807 156.833C61.0757 156.533 60.2107 159.069 62.0859 159.069C63.9611 159.069 67.1338 155.787 64.6809 153.843C62.228 151.898 61.5082 154.738 60.2107 155.039C58.9101 155.336 57.8999 153.248 56.6055 153.248C55.3049 153.248 56.173 149.512 55.5954 148.172C55.0177 146.826 54.1526 143.544 55.3049 141.9C56.4603 140.256 61.363 144.436 65.691 144.74C70.016 145.041 73.1887 142.505 73.1887 140.854C73.1887 139.21 71.1684 136.223 73.7634 134.438C76.3583 132.644 74.1989 132.043 73.4791 129.657C72.7562 127.271 74.6314 125.771 75.7868 126.97C76.9391 128.166 85.4439 127.421 92.5153 125.93C99.5805 124.43 104.486 121.744 104.916 119.658C105.348 117.567 109.821 112.641 110.829 110.847C111.839 109.052 110.974 106.81 108.088 106.369C105.203 105.921 105.348 102.483 106.936 100.548C108.521 98.6065 106.071 96.8154 103.331 96.5116C100.591 96.2109 96.2657 94.2758 98.7155 91.8898C99.8987 90.732 100.476 90.9687 101.051 91.49C101.462 90.3482 101.86 88.9985 101.53 88.6659C100.949 88.0582 99.4878 88.8163 99.6361 84.5784C99.7813 80.3469 101.239 81.2552 101.391 75.8084C101.53 70.3615 103.578 67.1887 103.578 64.3101C103.578 61.4412 108.549 58.1149 111.323 53.4228C114.103 48.7308 120.09 42.8329 122.574 41.1666C125.055 39.5034 129.88 38.144 130.467 36.6344C131.039 35.1087 130.455 26.9496 129.284 26.3388Z" fill="#B3B3B3"/>
<path d="M20.7875 122C18.1476 122 16 124.223 16 126.955C16 130.345 20.2843 135.323 20.4667 135.533C20.6381 135.731 20.9372 135.73 21.1082 135.533C21.2906 135.323 25.575 130.345 25.575 126.955C25.5749 124.223 23.4273 122 20.7875 122ZM20.7875 129.448C19.4593 129.448 18.3788 128.329 18.3788 126.955C18.3788 125.58 19.4593 124.462 20.7875 124.462C22.1156 124.462 23.1961 125.58 23.1961 126.955C23.1961 128.329 22.1156 129.448 20.7875 129.448Z" fill="#2D9FB5"/>
<path d="M93.7875 83C91.1476 83 89 85.2227 89 87.9547C89 91.3453 93.2843 96.3228 93.4667 96.5331C93.6381 96.7306 93.9372 96.7302 94.1082 96.5331C94.2906 96.3228 98.575 91.3453 98.575 87.9547C98.5749 85.2227 96.4273 83 93.7875 83ZM93.7875 90.4476C92.4593 90.4476 91.3788 89.3293 91.3788 87.9547C91.3788 86.5802 92.4593 85.4619 93.7875 85.4619C95.1156 85.4619 96.1961 86.5802 96.1961 87.9548C96.1961 89.3293 95.1156 90.4476 93.7875 90.4476Z" fill="#2D9FB5"/>
<path d="M107.732 94.108C107.276 94.108 106.82 94.092 106.364 94.06C105.916 94.036 105.448 93.972 104.96 93.868V85.804C105.344 85.732 105.764 85.68 106.22 85.648C106.676 85.608 107.1 85.588 107.492 85.588C108.02 85.588 108.504 85.628 108.944 85.708C109.392 85.78 109.776 85.908 110.096 86.092C110.416 86.276 110.664 86.52 110.84 86.824C111.024 87.12 111.116 87.488 111.116 87.928C111.116 88.592 110.796 89.116 110.156 89.5C110.684 89.7 111.044 89.972 111.236 90.316C111.428 90.66 111.524 91.048 111.524 91.48C111.524 92.352 111.204 93.008 110.564 93.448C109.932 93.888 108.988 94.108 107.732 94.108ZM106.784 90.376V92.524C106.92 92.54 107.068 92.552 107.228 92.56C107.388 92.568 107.564 92.572 107.756 92.572C108.316 92.572 108.768 92.492 109.112 92.332C109.456 92.172 109.628 91.876 109.628 91.444C109.628 91.06 109.484 90.788 109.196 90.628C108.908 90.46 108.496 90.376 107.96 90.376H106.784ZM106.784 88.948H107.696C108.272 88.948 108.684 88.876 108.932 88.732C109.18 88.58 109.304 88.34 109.304 88.012C109.304 87.676 109.176 87.44 108.92 87.304C108.664 87.168 108.288 87.1 107.792 87.1C107.632 87.1 107.46 87.104 107.276 87.112C107.092 87.112 106.928 87.12 106.784 87.136V88.948ZM118.291 93.784C117.987 93.872 117.595 93.952 117.115 94.024C116.635 94.104 116.131 94.144 115.603 94.144C115.067 94.144 114.619 94.072 114.259 93.928C113.907 93.784 113.627 93.584 113.419 93.328C113.211 93.064 113.063 92.752 112.975 92.392C112.887 92.032 112.843 91.636 112.843 91.204V87.688H114.631V90.988C114.631 91.564 114.707 91.98 114.859 92.236C115.011 92.492 115.295 92.62 115.711 92.62C115.839 92.62 115.975 92.616 116.119 92.608C116.263 92.592 116.391 92.576 116.503 92.56V87.688H118.291V93.784ZM119.669 90.892C119.669 90.332 119.753 89.844 119.921 89.428C120.097 89.004 120.325 88.652 120.605 88.372C120.885 88.092 121.205 87.88 121.565 87.736C121.933 87.592 122.309 87.52 122.693 87.52C123.589 87.52 124.297 87.796 124.817 88.348C125.337 88.892 125.597 89.696 125.597 90.76C125.597 90.864 125.593 90.98 125.585 91.108C125.577 91.228 125.569 91.336 125.561 91.432H121.505C121.545 91.8 121.717 92.092 122.021 92.308C122.325 92.524 122.733 92.632 123.245 92.632C123.573 92.632 123.893 92.604 124.205 92.548C124.525 92.484 124.785 92.408 124.985 92.32L125.225 93.772C125.129 93.82 125.001 93.868 124.841 93.916C124.681 93.964 124.501 94.004 124.301 94.036C124.109 94.076 123.901 94.108 123.677 94.132C123.453 94.156 123.229 94.168 123.005 94.168C122.437 94.168 121.941 94.084 121.517 93.916C121.101 93.748 120.753 93.52 120.473 93.232C120.201 92.936 119.997 92.588 119.861 92.188C119.733 91.788 119.669 91.356 119.669 90.892ZM123.869 90.208C123.861 90.056 123.833 89.908 123.785 89.764C123.745 89.62 123.677 89.492 123.581 89.38C123.493 89.268 123.377 89.176 123.233 89.104C123.097 89.032 122.925 88.996 122.717 88.996C122.517 88.996 122.345 89.032 122.201 89.104C122.057 89.168 121.937 89.256 121.841 89.368C121.745 89.48 121.669 89.612 121.613 89.764C121.565 89.908 121.529 90.056 121.505 90.208H123.869ZM126.977 87.904C127.281 87.816 127.673 87.736 128.153 87.664C128.633 87.584 129.137 87.544 129.665 87.544C130.201 87.544 130.645 87.616 130.997 87.76C131.357 87.896 131.641 88.092 131.849 88.348C132.057 88.604 132.205 88.908 132.293 89.26C132.381 89.612 132.425 90.004 132.425 90.436V94H130.637V90.652C130.637 90.076 130.561 89.668 130.409 89.428C130.257 89.188 129.973 89.068 129.557 89.068C129.429 89.068 129.293 89.076 129.149 89.092C129.005 89.1 128.877 89.112 128.765 89.128V94H126.977V87.904ZM139.947 90.832C139.947 91.328 139.875 91.784 139.731 92.2C139.587 92.608 139.379 92.96 139.107 93.256C138.835 93.544 138.507 93.768 138.123 93.928C137.747 94.088 137.323 94.168 136.851 94.168C136.387 94.168 135.963 94.088 135.579 93.928C135.203 93.768 134.879 93.544 134.607 93.256C134.335 92.96 134.123 92.608 133.971 92.2C133.819 91.784 133.743 91.328 133.743 90.832C133.743 90.336 133.819 89.884 133.971 89.476C134.131 89.068 134.347 88.72 134.619 88.432C134.899 88.144 135.227 87.92 135.603 87.76C135.987 87.6 136.403 87.52 136.851 87.52C137.307 87.52 137.723 87.6 138.099 87.76C138.483 87.92 138.811 88.144 139.083 88.432C139.355 88.72 139.567 89.068 139.719 89.476C139.871 89.884 139.947 90.336 139.947 90.832ZM138.123 90.832C138.123 90.28 138.011 89.848 137.787 89.536C137.571 89.216 137.259 89.056 136.851 89.056C136.443 89.056 136.127 89.216 135.903 89.536C135.679 89.848 135.567 90.28 135.567 90.832C135.567 91.384 135.679 91.824 135.903 92.152C136.127 92.472 136.443 92.632 136.851 92.632C137.259 92.632 137.571 92.472 137.787 92.152C138.011 91.824 138.123 91.384 138.123 90.832ZM143.144 92.716C143.472 92.716 143.704 92.684 143.84 92.62C143.976 92.556 144.044 92.432 144.044 92.248C144.044 92.104 143.956 91.98 143.78 91.876C143.604 91.764 143.336 91.64 142.976 91.504C142.696 91.4 142.44 91.292 142.208 91.18C141.984 91.068 141.792 90.936 141.632 90.784C141.472 90.624 141.348 90.436 141.26 90.22C141.172 90.004 141.128 89.744 141.128 89.44C141.128 88.848 141.348 88.38 141.788 88.036C142.228 87.692 142.832 87.52 143.6 87.52C143.984 87.52 144.352 87.556 144.704 87.628C145.056 87.692 145.336 87.764 145.544 87.844L145.232 89.236C145.024 89.164 144.796 89.1 144.548 89.044C144.308 88.988 144.036 88.96 143.732 88.96C143.172 88.96 142.892 89.116 142.892 89.428C142.892 89.5 142.904 89.564 142.928 89.62C142.952 89.676 143 89.732 143.072 89.788C143.144 89.836 143.24 89.892 143.36 89.956C143.488 90.012 143.648 90.076 143.84 90.148C144.232 90.292 144.556 90.436 144.812 90.58C145.068 90.716 145.268 90.868 145.412 91.036C145.564 91.196 145.668 91.376 145.724 91.576C145.788 91.776 145.82 92.008 145.82 92.272C145.82 92.896 145.584 93.368 145.112 93.688C144.648 94.008 143.988 94.168 143.132 94.168C142.572 94.168 142.104 94.12 141.728 94.024C141.36 93.928 141.104 93.848 140.96 93.784L141.26 92.332C141.564 92.452 141.876 92.548 142.196 92.62C142.516 92.684 142.832 92.716 143.144 92.716ZM155.727 94C155.639 93.712 155.539 93.416 155.427 93.112C155.323 92.808 155.219 92.504 155.115 92.2H151.875C151.771 92.504 151.663 92.808 151.551 93.112C151.447 93.416 151.351 93.712 151.263 94H149.319C149.631 93.104 149.927 92.276 150.207 91.516C150.487 90.756 150.759 90.04 151.023 89.368C151.295 88.696 151.559 88.06 151.815 87.46C152.079 86.852 152.351 86.26 152.631 85.684H154.419C154.691 86.26 154.959 86.852 155.223 87.46C155.487 88.06 155.751 88.696 156.015 89.368C156.287 90.04 156.563 90.756 156.843 91.516C157.123 92.276 157.419 93.104 157.731 94H155.727ZM153.483 87.568C153.443 87.688 153.383 87.852 153.303 88.06C153.223 88.268 153.131 88.508 153.027 88.78C152.923 89.052 152.807 89.352 152.679 89.68C152.559 90.008 152.435 90.352 152.307 90.712H154.671C154.543 90.352 154.419 90.008 154.299 89.68C154.179 89.352 154.063 89.052 153.951 88.78C153.847 88.508 153.755 88.268 153.675 88.06C153.595 87.852 153.531 87.688 153.483 87.568ZM160.476 94H158.688V87.688H160.476V94ZM160.644 85.864C160.644 86.192 160.536 86.452 160.32 86.644C160.112 86.828 159.864 86.92 159.576 86.92C159.288 86.92 159.036 86.828 158.82 86.644C158.612 86.452 158.508 86.192 158.508 85.864C158.508 85.536 158.612 85.28 158.82 85.096C159.036 84.904 159.288 84.808 159.576 84.808C159.864 84.808 160.112 84.904 160.32 85.096C160.536 85.28 160.644 85.536 160.644 85.864ZM165.96 89.272C165.8 89.232 165.612 89.192 165.396 89.152C165.18 89.104 164.948 89.08 164.7 89.08C164.588 89.08 164.452 89.092 164.292 89.116C164.14 89.132 164.024 89.152 163.944 89.176V94H162.156V88.024C162.476 87.912 162.852 87.808 163.284 87.712C163.724 87.608 164.212 87.556 164.748 87.556C164.844 87.556 164.96 87.564 165.096 87.58C165.232 87.588 165.368 87.604 165.504 87.628C165.64 87.644 165.776 87.668 165.912 87.7C166.048 87.724 166.164 87.756 166.26 87.796L165.96 89.272ZM166.802 90.892C166.802 90.332 166.886 89.844 167.054 89.428C167.23 89.004 167.458 88.652 167.738 88.372C168.018 88.092 168.338 87.88 168.698 87.736C169.066 87.592 169.442 87.52 169.826 87.52C170.722 87.52 171.43 87.796 171.95 88.348C172.47 88.892 172.73 89.696 172.73 90.76C172.73 90.864 172.726 90.98 172.718 91.108C172.71 91.228 172.702 91.336 172.694 91.432H168.638C168.678 91.8 168.85 92.092 169.154 92.308C169.458 92.524 169.866 92.632 170.378 92.632C170.706 92.632 171.026 92.604 171.338 92.548C171.658 92.484 171.918 92.408 172.118 92.32L172.358 93.772C172.262 93.82 172.134 93.868 171.974 93.916C171.814 93.964 171.634 94.004 171.434 94.036C171.242 94.076 171.034 94.108 170.81 94.132C170.586 94.156 170.362 94.168 170.138 94.168C169.57 94.168 169.074 94.084 168.65 93.916C168.234 93.748 167.886 93.52 167.606 93.232C167.334 92.936 167.13 92.588 166.994 92.188C166.866 91.788 166.802 91.356 166.802 90.892ZM171.002 90.208C170.994 90.056 170.966 89.908 170.918 89.764C170.878 89.62 170.81 89.492 170.714 89.38C170.626 89.268 170.51 89.176 170.366 89.104C170.23 89.032 170.058 88.996 169.85 88.996C169.65 88.996 169.478 89.032 169.334 89.104C169.19 89.168 169.07 89.256 168.974 89.368C168.878 89.48 168.802 89.612 168.746 89.764C168.698 89.908 168.662 90.056 168.638 90.208H171.002ZM175.922 92.716C176.25 92.716 176.482 92.684 176.618 92.62C176.754 92.556 176.822 92.432 176.822 92.248C176.822 92.104 176.734 91.98 176.558 91.876C176.382 91.764 176.114 91.64 175.754 91.504C175.474 91.4 175.218 91.292 174.986 91.18C174.762 91.068 174.57 90.936 174.41 90.784C174.25 90.624 174.126 90.436 174.038 90.22C173.95 90.004 173.906 89.744 173.906 89.44C173.906 88.848 174.126 88.38 174.566 88.036C175.006 87.692 175.61 87.52 176.378 87.52C176.762 87.52 177.13 87.556 177.482 87.628C177.834 87.692 178.114 87.764 178.322 87.844L178.01 89.236C177.802 89.164 177.574 89.1 177.326 89.044C177.086 88.988 176.814 88.96 176.51 88.96C175.95 88.96 175.67 89.116 175.67 89.428C175.67 89.5 175.682 89.564 175.706 89.62C175.73 89.676 175.778 89.732 175.85 89.788C175.922 89.836 176.018 89.892 176.138 89.956C176.266 90.012 176.426 90.076 176.618 90.148C177.01 90.292 177.334 90.436 177.59 90.58C177.846 90.716 178.046 90.868 178.19 91.036C178.342 91.196 178.446 91.376 178.502 91.576C178.566 91.776 178.598 92.008 178.598 92.272C178.598 92.896 178.362 93.368 177.89 93.688C177.426 94.008 176.766 94.168 175.91 94.168C175.35 94.168 174.882 94.12 174.506 94.024C174.138 93.928 173.882 93.848 173.738 93.784L174.038 92.332C174.342 92.452 174.654 92.548 174.974 92.62C175.294 92.684 175.61 92.716 175.922 92.716Z" fill="#2D9FB5"/>
<path d="M32.732 133.108C32.276 133.108 31.82 133.092 31.364 133.06C30.916 133.036 30.448 132.972 29.96 132.868V124.804C30.344 124.732 30.764 124.68 31.22 124.648C31.676 124.608 32.1 124.588 32.492 124.588C33.02 124.588 33.504 124.628 33.944 124.708C34.392 124.78 34.776 124.908 35.096 125.092C35.416 125.276 35.664 125.52 35.84 125.824C36.024 126.12 36.116 126.488 36.116 126.928C36.116 127.592 35.796 128.116 35.156 128.5C35.684 128.7 36.044 128.972 36.236 129.316C36.428 129.66 36.524 130.048 36.524 130.48C36.524 131.352 36.204 132.008 35.564 132.448C34.932 132.888 33.988 133.108 32.732 133.108ZM31.784 129.376V131.524C31.92 131.54 32.068 131.552 32.228 131.56C32.388 131.568 32.564 131.572 32.756 131.572C33.316 131.572 33.768 131.492 34.112 131.332C34.456 131.172 34.628 130.876 34.628 130.444C34.628 130.06 34.484 129.788 34.196 129.628C33.908 129.46 33.496 129.376 32.96 129.376H31.784ZM31.784 127.948H32.696C33.272 127.948 33.684 127.876 33.932 127.732C34.18 127.58 34.304 127.34 34.304 127.012C34.304 126.676 34.176 126.44 33.92 126.304C33.664 126.168 33.288 126.1 32.792 126.1C32.632 126.1 32.46 126.104 32.276 126.112C32.092 126.112 31.928 126.12 31.784 126.136V127.948ZM40.3145 131.752C40.4905 131.752 40.6585 131.748 40.8185 131.74C40.9785 131.732 41.1065 131.72 41.2025 131.704V130.348C41.1305 130.332 41.0225 130.316 40.8785 130.3C40.7345 130.284 40.6025 130.276 40.4825 130.276C40.3145 130.276 40.1545 130.288 40.0025 130.312C39.8585 130.328 39.7305 130.364 39.6185 130.42C39.5065 130.476 39.4185 130.552 39.3545 130.648C39.2905 130.744 39.2585 130.864 39.2585 131.008C39.2585 131.288 39.3505 131.484 39.5345 131.596C39.7265 131.7 39.9865 131.752 40.3145 131.752ZM40.1705 126.52C40.6985 126.52 41.1385 126.58 41.4905 126.7C41.8425 126.82 42.1225 126.992 42.3305 127.216C42.5465 127.44 42.6985 127.712 42.7865 128.032C42.8745 128.352 42.9185 128.708 42.9185 129.1V132.82C42.6625 132.876 42.3065 132.94 41.8505 133.012C41.3945 133.092 40.8425 133.132 40.1945 133.132C39.7865 133.132 39.4145 133.096 39.0785 133.024C38.7505 132.952 38.4665 132.836 38.2265 132.676C37.9865 132.508 37.8025 132.292 37.6745 132.028C37.5465 131.764 37.4825 131.44 37.4825 131.056C37.4825 130.688 37.5545 130.376 37.6985 130.12C37.8505 129.864 38.0505 129.66 38.2985 129.508C38.5465 129.356 38.8305 129.248 39.1505 129.184C39.4705 129.112 39.8025 129.076 40.1465 129.076C40.3785 129.076 40.5825 129.088 40.7585 129.112C40.9425 129.128 41.0905 129.152 41.2025 129.184V129.016C41.2025 128.712 41.1105 128.468 40.9265 128.284C40.7425 128.1 40.4225 128.008 39.9665 128.008C39.6625 128.008 39.3625 128.032 39.0665 128.08C38.7705 128.12 38.5145 128.18 38.2985 128.26L38.0705 126.82C38.1745 126.788 38.3025 126.756 38.4545 126.724C38.6145 126.684 38.7865 126.652 38.9705 126.628C39.1545 126.596 39.3465 126.572 39.5465 126.556C39.7545 126.532 39.9625 126.52 40.1705 126.52ZM48.3393 128.272C48.1793 128.232 47.9913 128.192 47.7753 128.152C47.5593 128.104 47.3273 128.08 47.0793 128.08C46.9673 128.08 46.8313 128.092 46.6713 128.116C46.5193 128.132 46.4033 128.152 46.3233 128.176V133H44.5353V127.024C44.8553 126.912 45.2313 126.808 45.6633 126.712C46.1033 126.608 46.5913 126.556 47.1273 126.556C47.2233 126.556 47.3393 126.564 47.4753 126.58C47.6113 126.588 47.7473 126.604 47.8833 126.628C48.0193 126.644 48.1553 126.668 48.2913 126.7C48.4273 126.724 48.5433 126.756 48.6393 126.796L48.3393 128.272ZM51.3858 133H49.5978V126.688H51.3858V133ZM51.5538 124.864C51.5538 125.192 51.4458 125.452 51.2298 125.644C51.0218 125.828 50.7738 125.92 50.4858 125.92C50.1978 125.92 49.9458 125.828 49.7298 125.644C49.5218 125.452 49.4178 125.192 49.4178 124.864C49.4178 124.536 49.5218 124.28 49.7298 124.096C49.9458 123.904 50.1978 123.808 50.4858 123.808C50.7738 123.808 51.0218 123.904 51.2298 124.096C51.4458 124.28 51.5538 124.536 51.5538 124.864ZM55.5866 133.12C55.0666 133.112 54.6426 133.056 54.3146 132.952C53.9946 132.848 53.7386 132.704 53.5466 132.52C53.3626 132.328 53.2346 132.1 53.1626 131.836C53.0986 131.564 53.0666 131.26 53.0666 130.924V123.976L54.8546 123.688V130.564C54.8546 130.724 54.8666 130.868 54.8906 130.996C54.9146 131.124 54.9586 131.232 55.0226 131.32C55.0946 131.408 55.1946 131.48 55.3226 131.536C55.4506 131.592 55.6226 131.628 55.8386 131.644L55.5866 133.12ZM62.7674 129.832C62.7674 130.328 62.6954 130.784 62.5514 131.2C62.4074 131.608 62.1994 131.96 61.9274 132.256C61.6554 132.544 61.3274 132.768 60.9434 132.928C60.5674 133.088 60.1434 133.168 59.6714 133.168C59.2074 133.168 58.7834 133.088 58.3994 132.928C58.0234 132.768 57.6994 132.544 57.4274 132.256C57.1554 131.96 56.9434 131.608 56.7914 131.2C56.6394 130.784 56.5634 130.328 56.5634 129.832C56.5634 129.336 56.6394 128.884 56.7914 128.476C56.9514 128.068 57.1674 127.72 57.4394 127.432C57.7194 127.144 58.0474 126.92 58.4234 126.76C58.8074 126.6 59.2234 126.52 59.6714 126.52C60.1274 126.52 60.5434 126.6 60.9194 126.76C61.3034 126.92 61.6314 127.144 61.9034 127.432C62.1754 127.72 62.3874 128.068 62.5394 128.476C62.6914 128.884 62.7674 129.336 62.7674 129.832ZM60.9434 129.832C60.9434 129.28 60.8314 128.848 60.6074 128.536C60.3914 128.216 60.0794 128.056 59.6714 128.056C59.2634 128.056 58.9474 128.216 58.7234 128.536C58.4994 128.848 58.3874 129.28 58.3874 129.832C58.3874 130.384 58.4994 130.824 58.7234 131.152C58.9474 131.472 59.2634 131.632 59.6714 131.632C60.0794 131.632 60.3914 131.472 60.6074 131.152C60.8314 130.824 60.9434 130.384 60.9434 129.832ZM63.8525 129.844C63.8525 129.388 63.9245 128.96 64.0685 128.56C64.2205 128.152 64.4365 127.8 64.7165 127.504C64.9965 127.2 65.3365 126.96 65.7365 126.784C66.1365 126.608 66.5925 126.52 67.1045 126.52C67.4405 126.52 67.7485 126.552 68.0285 126.616C68.3085 126.672 68.5805 126.756 68.8445 126.868L68.4725 128.296C68.3045 128.232 68.1205 128.176 67.9205 128.128C67.7205 128.08 67.4965 128.056 67.2485 128.056C66.7205 128.056 66.3245 128.22 66.0605 128.548C65.8045 128.876 65.6765 129.308 65.6765 129.844C65.6765 130.412 65.7965 130.852 66.0365 131.164C66.2845 131.476 66.7125 131.632 67.3205 131.632C67.5365 131.632 67.7685 131.612 68.0165 131.572C68.2645 131.532 68.4925 131.468 68.7005 131.38L68.9525 132.844C68.7445 132.932 68.4845 133.008 68.1725 133.072C67.8605 133.136 67.5165 133.168 67.1405 133.168C66.5645 133.168 66.0685 133.084 65.6525 132.916C65.2365 132.74 64.8925 132.504 64.6205 132.208C64.3565 131.912 64.1605 131.564 64.0325 131.164C63.9125 130.756 63.8525 130.316 63.8525 129.844ZM70.1525 133V123.976L71.9405 123.688V126.712C72.0605 126.672 72.2125 126.636 72.3965 126.604C72.5885 126.564 72.7725 126.544 72.9485 126.544C73.4605 126.544 73.8845 126.616 74.2205 126.76C74.5645 126.896 74.8365 127.092 75.0365 127.348C75.2445 127.604 75.3885 127.908 75.4685 128.26C75.5565 128.612 75.6005 129.004 75.6005 129.436V133H73.8125V129.652C73.8125 129.076 73.7365 128.668 73.5845 128.428C73.4405 128.188 73.1685 128.068 72.7685 128.068C72.6085 128.068 72.4565 128.084 72.3125 128.116C72.1765 128.14 72.0525 128.168 71.9405 128.2V133H70.1525ZM76.9189 129.892C76.9189 129.332 77.0029 128.844 77.1709 128.428C77.3469 128.004 77.5749 127.652 77.8549 127.372C78.1349 127.092 78.4549 126.88 78.8149 126.736C79.1829 126.592 79.5589 126.52 79.9429 126.52C80.8389 126.52 81.5469 126.796 82.0669 127.348C82.5869 127.892 82.8469 128.696 82.8469 129.76C82.8469 129.864 82.8429 129.98 82.8349 130.108C82.8269 130.228 82.8189 130.336 82.8109 130.432H78.7549C78.7949 130.8 78.9669 131.092 79.2709 131.308C79.5749 131.524 79.9829 131.632 80.4949 131.632C80.8229 131.632 81.1429 131.604 81.4549 131.548C81.7749 131.484 82.0349 131.408 82.2349 131.32L82.4749 132.772C82.3789 132.82 82.2509 132.868 82.0909 132.916C81.9309 132.964 81.7509 133.004 81.5509 133.036C81.3589 133.076 81.1509 133.108 80.9269 133.132C80.7029 133.156 80.4789 133.168 80.2549 133.168C79.6869 133.168 79.1909 133.084 78.7669 132.916C78.3509 132.748 78.0029 132.52 77.7229 132.232C77.4509 131.936 77.2469 131.588 77.1109 131.188C76.9829 130.788 76.9189 130.356 76.9189 129.892ZM81.1189 129.208C81.1109 129.056 81.0829 128.908 81.0349 128.764C80.9949 128.62 80.9269 128.492 80.8309 128.38C80.7429 128.268 80.6269 128.176 80.4829 128.104C80.3469 128.032 80.1749 127.996 79.9669 127.996C79.7669 127.996 79.5949 128.032 79.4509 128.104C79.3069 128.168 79.1869 128.256 79.0909 128.368C78.9949 128.48 78.9189 128.612 78.8629 128.764C78.8149 128.908 78.7789 129.056 78.7549 129.208H81.1189Z" fill="#2D9FB5"/>
</svg>
